<?xml version="1.0" standalone="no"?>
<!DOCTYPE svg PUBLIC "-//W3C//DTD SVG 20010904//EN"
 "http://www.w3.org/TR/2001/REC-SVG-20010904/DTD/svg10.dtd">
<svg version="1.0" xmlns="http://www.w3.org/2000/svg"
 width="742.000000pt" height="500.000000pt" viewBox="0 0 742.000000 500.000000"
 preserveAspectRatio="xMidYMid meet">

<g transform="translate(0.000000,500.000000) scale(0.100000,-0.100000)"
fill="#000000" stroke="none">
<path d="M0 2500 l0 -2500 3710 0 3710 0 0 2500 0 2500 -3710 0 -3710 0 0
-2500z m6435 961 c224 -74 412 -254 469 -451 91 -309 -66 -575 -483 -820 -52
-30 -96 -53 -99 -52 -3 2 -8 -1 -11 -6 -6 -9 -191 -101 -276 -137 -166 -70
-377 -132 -477 -140 -132 -11 -307 55 -354 134 -10 17 -21 31 -25 31 -18 0
-95 -212 -188 -516 -17 -56 -44 -119 -61 -142 -42 -58 -122 -108 -200 -126
-211 -46 -432 -20 -548 65 -105 77 -119 178 -45 331 57 119 224 402 438 743
226 360 240 385 224 385 -7 0 -51 -12 -98 -26 -124 -37 -267 -114 -343 -183
-79 -73 -114 -91 -175 -91 -102 1 -178 65 -178 150 1 106 194 528 291 636 25
27 44 37 139 69 196 66 551 115 1070 150 341 23 330 22 605 20 236 -1 260 -3
325 -24z m-2735 -7 c65 -19 136 -88 146 -140 27 -144 -100 -330 -286 -422
-152 -74 -306 -99 -415 -67 -48 13 -70 27 -113 71 -62 64 -68 64 -223 33 -111
-23 -300 -91 -383 -139 -63 -35 -111 -84 -103 -103 9 -24 99 -52 435 -136 322
-81 410 -108 539 -167 155 -70 236 -138 283 -237 51 -106 48 -251 -8 -359
-137 -267 -699 -483 -1512 -579 -242 -29 -635 -32 -811 -6 -250 37 -396 94
-462 182 -103 138 -162 441 -100 522 19 26 25 28 89 26 46 -1 136 -18 264 -51
343 -88 625 -124 970 -124 229 0 372 12 511 42 106 24 142 37 134 49 -9 16
-160 58 -618 172 -647 162 -755 202 -840 314 -59 76 -80 145 -80 255 1 135 41
246 110 305 112 93 524 249 938 355 653 168 1348 260 1535 204z"/>
<path d="M5820 3438 c-340 -18 -484 -29 -775 -59 -237 -24 -455 -65 -605 -111
-88 -28 -117 -52 -173 -146 -96 -162 -217 -447 -217 -510 0 -80 99 -135 185
-102 15 6 55 36 89 68 69 66 106 90 221 145 72 35 295 114 369 131 l28 7 -23
-38 c-12 -21 -30 -47 -39 -58 -10 -11 -19 -24 -21 -30 -2 -5 -38 -62 -80 -125
-264 -401 -558 -896 -620 -1041 -42 -98 -38 -135 22 -203 40 -47 70 -62 167
-86 146 -37 345 -21 455 35 78 40 114 86 137 175 21 81 72 244 102 325 44 119
78 206 93 240 8 17 37 82 65 145 64 142 155 321 233 460 33 58 87 153 119 212
40 69 68 108 82 113 32 9 379 19 410 11 63 -16 146 -122 146 -186 0 -71 -72
-144 -239 -243 -101 -61 -141 -83 -376 -207 -271 -143 -345 -206 -345 -291 0
-93 139 -172 299 -171 159 2 502 126 806 292 58 32 150 87 170 102 6 5 37 28
69 53 154 117 246 230 287 352 18 56 21 81 17 172 -6 114 -18 155 -74 251 -76
128 -234 249 -392 299 -73 23 -346 32 -592 19z"/>
<path d="M5825 2955 c-11 -2 -55 -7 -98 -10 l-78 -7 -33 -51 c-114 -178 -339
-617 -315 -617 5 0 71 33 147 73 75 41 187 100 247 132 302 158 445 263 445
326 0 42 -32 99 -72 129 -29 22 -44 25 -128 27 -52 0 -104 0 -115 -2z"/>
<path d="M3390 3418 c-161 -13 -338 -34 -485 -59 -57 -10 -91 -16 -215 -40
-30 -6 -77 -15 -105 -20 -50 -10 -74 -15 -195 -43 -296 -68 -339 -80 -580
-158 -180 -59 -317 -112 -434 -169 -170 -83 -210 -145 -210 -334 -1 -99 2
-116 26 -167 56 -120 139 -171 387 -242 105 -30 617 -159 801 -202 195 -46
366 -103 382 -128 19 -29 -68 -72 -208 -101 -149 -31 -316 -45 -539 -45 -341
0 -625 34 -925 112 -343 89 -355 91 -378 48 -27 -52 7 -256 64 -376 56 -119
122 -164 303 -208 175 -43 261 -51 541 -51 283 0 384 9 690 57 112 17 361 69
455 93 419 112 700 272 778 445 16 35 20 67 21 145 1 91 -2 105 -27 155 -55
108 -138 168 -340 249 -114 45 -403 124 -672 183 -90 19 -218 62 -242 81 -86
68 76 196 377 297 135 45 360 76 360 50 0 -24 71 -94 118 -116 83 -39 256 -13
402 62 158 81 260 213 260 338 0 50 -30 95 -84 123 -39 21 -194 31 -326 21z"/>
</g>
</svg>
